<svg width="16" height="16" viewBox="0 0 16 16" fill="none" xmlns="http://www.w3.org/2000/svg">
<path d="M0 8C0 9.58225 0.469192 11.129 1.34824 12.4446C2.22729 13.7602 3.47672 14.7855 4.93853 15.391C6.40034 15.9965 8.00887 16.155 9.56072 15.8463C11.1126 15.5376 12.538 14.7757 13.6569 13.6569C14.7757 12.538 15.5376 11.1126 15.8463 9.56072C16.155 8.00887 15.9965 6.40034 15.391 4.93853C14.7855 3.47672 13.7602 2.22729 12.4446 1.34824C11.129 0.469192 9.58225 0 8 0C5.87897 0.00229405 3.84547 0.845886 2.34568 2.34568C0.845886 3.84547 0.00229405 5.87897 0 8ZM10.6667 8C10.6672 8.48801 10.4888 8.95928 10.1653 9.32467C9.97133 9.54267 9.78267 9.74933 9.64733 9.88467L7.76467 11.8C7.70439 11.8666 7.63127 11.9203 7.54972 11.9579C7.46816 11.9955 7.37984 12.0163 7.29007 12.0189C7.20029 12.0216 7.11091 12.006 7.02728 11.9733C6.94366 11.9405 6.86751 11.8912 6.80342 11.8283C6.73933 11.7653 6.68862 11.6901 6.65432 11.6071C6.62003 11.5241 6.60286 11.435 6.60385 11.3452C6.60483 11.2554 6.62396 11.1667 6.66007 11.0845C6.69618 11.0023 6.74854 10.9282 6.814 10.8667L8.7 8.94667C8.82467 8.82133 8.994 8.63467 9.16667 8.44067C9.27409 8.31888 9.33337 8.16207 9.33337 7.99967C9.33337 7.83727 9.27409 7.68046 9.16667 7.55867C8.99467 7.36533 8.82533 7.17867 8.70467 7.05733L6.814 5.13333C6.74854 5.07184 6.69618 4.99775 6.66007 4.91551C6.62396 4.83328 6.60483 4.7446 6.60385 4.65479C6.60286 4.56498 6.62003 4.47589 6.65432 4.39289C6.68862 4.30988 6.73933 4.23465 6.80342 4.17173C6.86751 4.10881 6.94366 4.05949 7.02728 4.02673C7.11091 3.99396 7.20029 3.97844 7.29007 3.98108C7.37984 3.98372 7.46816 4.00447 7.54972 4.04209C7.63127 4.07971 7.70439 4.13342 7.76467 4.2L9.65067 6.11933C9.784 6.25267 9.97067 6.45733 10.1633 6.67467C10.4879 7.03984 10.667 7.51147 10.6667 8Z" fill="#3B66B9"/>
</svg>
