<svg width="24" height="24" viewBox="0 0 24 24" fill="none" xmlns="http://www.w3.org/2000/svg">
<g clip-path="url(#clip0_14_63)">
<path d="M0 12C0 14.3734 0.703788 16.6935 2.02236 18.6668C3.34094 20.6402 5.21509 22.1783 7.4078 23.0866C9.60051 23.9948 12.0133 24.2324 14.3411 23.7694C16.6689 23.3064 18.8071 22.1635 20.4853 20.4853C22.1635 18.8071 23.3064 16.6689 23.7694 14.3411C24.2324 12.0133 23.9948 9.60051 23.0866 7.4078C22.1783 5.21509 20.6402 3.34094 18.6668 2.02236C16.6935 0.703788 14.3734 0 12 0C8.81846 0.00344108 5.76821 1.26883 3.51852 3.51852C1.26883 5.76821 0.00344108 8.81846 0 12ZM16 12C16.0008 12.732 15.7332 13.4389 15.248 13.987C14.957 14.314 14.674 14.624 14.471 14.827L11.647 17.7C11.5566 17.7999 11.4469 17.8804 11.3246 17.9369C11.2022 17.9933 11.0698 18.0244 10.9351 18.0284C10.8004 18.0323 10.6664 18.0091 10.5409 17.9599C10.4155 17.9108 10.3013 17.8368 10.2051 17.7424C10.109 17.648 10.0329 17.5352 9.98148 17.4107C9.93004 17.2862 9.90429 17.1525 9.90577 17.0178C9.90725 16.8831 9.93594 16.7501 9.99011 16.6267C10.0443 16.5034 10.1228 16.3922 10.221 16.3L13.05 13.42C13.237 13.232 13.491 12.952 13.75 12.661C13.9111 12.4783 14.0001 12.2431 14.0001 11.9995C14.0001 11.7559 13.9111 11.5207 13.75 11.338C13.492 11.048 13.238 10.768 13.057 10.586L10.221 7.7C10.1228 7.60776 10.0443 7.49662 9.99011 7.37327C9.93594 7.24992 9.90725 7.11689 9.90577 6.98218C9.90429 6.84747 9.93004 6.71384 9.98148 6.58933C10.0329 6.46482 10.109 6.35198 10.2051 6.2576C10.3013 6.16322 10.4155 6.08923 10.5409 6.04009C10.6664 5.99095 10.8004 5.96765 10.9351 5.97161C11.0698 5.97557 11.2022 6.0067 11.3246 6.06313C11.4469 6.11957 11.5566 6.20013 11.647 6.3L14.476 9.179C14.676 9.379 14.956 9.686 15.245 10.012C15.7318 10.5598 16.0005 11.2672 16 12Z" fill="#F5F5F5"/>
</g>
<defs>
<clipPath id="clip0_14_63">
<rect width="24" height="24" fill="white"/>
</clipPath>
</defs>
</svg>
