<svg width="448" height="353" viewBox="0 0 448 353" fill="none" xmlns="http://www.w3.org/2000/svg">
<g opacity="0.4">
<path d="M355.798 1.19165H41.626C19.5346 1.19165 1.62598 19.1003 1.62598 41.1917V266.128C1.62598 288.219 19.5346 306.128 41.6259 306.128H355.797C377.889 306.128 395.797 288.219 395.797 266.127V41.1917C395.797 19.1003 377.889 1.19165 355.798 1.19165Z" stroke="#C0B49B"/>
<path d="M91.9456 46.6077H406.117C428.209 46.6077 446.117 64.5163 446.117 86.6077V311.544C446.117 333.635 428.209 351.544 406.117 351.544H91.9457C69.8543 351.544 51.9457 333.635 51.9457 311.543V86.6077C51.9457 64.5163 69.8542 46.6077 91.9456 46.6077Z" stroke="#C0B49B"/>
<path d="M355.798 1.19165H41.626C19.5346 1.19165 1.62598 19.1003 1.62598 41.1917V266.128C1.62598 288.219 19.5346 306.128 41.6259 306.128H355.797C377.889 306.128 395.797 288.219 395.797 266.127V41.1917C395.797 19.1003 377.889 1.19165 355.798 1.19165Z" stroke="#404040" stroke-opacity="0.2"/>
<path d="M91.9456 46.6077H406.117C428.209 46.6077 446.117 64.5163 446.117 86.6077V311.544C446.117 333.635 428.209 351.544 406.117 351.544H91.9457C69.8543 351.544 51.9457 333.635 51.9457 311.543V86.6077C51.9457 64.5163 69.8542 46.6077 91.9456 46.6077Z" stroke="#404040" stroke-opacity="0.2"/>
</g>
</svg>
