<svg width="558" height="353" viewBox="0 0 558 353" fill="none" xmlns="http://www.w3.org/2000/svg">
<g opacity="0.4">
<path d="M452.98 1.19165H42.0251C19.9338 1.19165 2.02515 19.1003 2.02515 41.1917V266.128C2.02515 288.219 19.9337 306.128 42.0251 306.128H452.98C475.071 306.128 492.98 288.219 492.98 266.127V41.1917C492.98 19.1003 475.071 1.19165 452.98 1.19165Z" stroke="#C0B49B"/>
<path d="M104.7 46.6077H515.655C537.746 46.6077 555.655 64.5163 555.655 86.6077V311.544C555.655 333.635 537.746 351.544 515.655 351.544H104.7C82.6089 351.544 64.7003 333.635 64.7003 311.543V86.6077C64.7003 64.5163 82.6089 46.6077 104.7 46.6077Z" stroke="#C0B49B"/>
<path d="M452.98 1.19165H42.0251C19.9338 1.19165 2.02515 19.1003 2.02515 41.1917V266.128C2.02515 288.219 19.9337 306.128 42.0251 306.128H452.98C475.071 306.128 492.98 288.219 492.98 266.127V41.1917C492.98 19.1003 475.071 1.19165 452.98 1.19165Z" stroke="#404040" stroke-opacity="0.2"/>
<path d="M104.7 46.6077H515.655C537.746 46.6077 555.655 64.5163 555.655 86.6077V311.544C555.655 333.635 537.746 351.544 515.655 351.544H104.7C82.6089 351.544 64.7003 333.635 64.7003 311.543V86.6077C64.7003 64.5163 82.6089 46.6077 104.7 46.6077Z" stroke="#404040" stroke-opacity="0.2"/>
</g>
</svg>
