<svg width="133" height="25" viewBox="0 0 133 25" fill="none" xmlns="http://www.w3.org/2000/svg">
<path d="M0.772 24L4.912 0.599999H9.736L5.596 24H0.772ZM9.05509 24L13.1951 0.599999H17.5871L23.9951 15L26.5511 0.599999H31.3751L27.2351 24H23.0231L16.4351 9.42L13.8791 24H9.05509ZM36.9399 14.28L36.0039 19.5H47.9199L47.1279 24H30.3879L34.5279 0.599999H51.2679L50.4759 5.1H38.5599L37.7319 9.78H48.2079L47.4159 14.28H36.9399ZM48.7122 22.308L50.8722 17.952C52.4202 19.248 54.6162 19.932 56.5602 19.932C58.9002 19.932 60.8442 18.96 60.8442 17.16C60.8442 13.272 51.5922 15.288 51.5922 7.692C51.5922 2.58 55.7682 0.239999 60.9522 0.239999C63.9042 0.239999 66.0282 0.995998 67.5762 2.328L65.4162 6.684C63.9762 5.352 62.0322 4.74 60.3402 4.74C58.2882 4.74 56.5962 5.604 56.5962 7.368C56.5962 11.472 65.8842 9.276 65.8842 16.764C65.8842 21.876 61.5642 24.432 55.9122 24.432C52.8162 24.432 50.4042 23.676 48.7122 22.308ZM66.5496 24L70.6896 0.599999H77.9976C84.2616 0.599999 87.2496 3.876 87.2496 9.384C87.2496 12.444 86.3136 16.548 84.4416 19.464C82.1736 22.992 78.9696 24 74.0736 24H66.5496ZM74.6496 19.5C76.7736 19.5 78.3216 19.284 79.7256 17.736C81.3096 15.972 82.2816 12.696 82.2816 9.672C82.2816 6.792 81.3816 5.1 77.2056 5.1H74.7216L72.1656 19.5H74.6496ZM103.124 12.408L101.288 22.92C99.1999 23.82 96.6439 24.432 93.7279 24.432C89.4079 24.432 86.9599 22.92 86.9599 19.104C86.9599 14.496 90.5239 12.984 95.2039 12.984H98.4079L98.5879 11.868C98.8399 10.356 98.0479 9.816 95.5639 9.816C93.3679 9.816 91.6399 10.248 90.4519 10.68V6.432C92.1079 6 94.3399 5.568 96.3199 5.568C100.748 5.568 103.952 7.692 103.124 12.408ZM97.1479 19.968L97.7599 16.512H94.5199C92.3239 16.512 91.7479 17.484 91.7479 18.78C91.7479 20.256 92.4679 20.472 94.1239 20.472C95.2759 20.472 96.3199 20.292 97.1479 19.968ZM104.131 16.656L106.831 1.32H111.511L110.683 6H116.803L116.011 10.428H109.927L108.667 17.556C108.343 19.356 109.063 19.968 110.683 19.968C111.871 19.968 113.419 19.644 114.391 19.212V23.64C113.023 24.144 111.331 24.396 109.963 24.396C105.643 24.396 103.195 21.948 104.131 16.656ZM131.833 12.408L129.997 22.92C127.909 23.82 125.353 24.432 122.437 24.432C118.117 24.432 115.669 22.92 115.669 19.104C115.669 14.496 119.233 12.984 123.913 12.984H127.117L127.297 11.868C127.549 10.356 126.757 9.816 124.273 9.816C122.077 9.816 120.349 10.248 119.161 10.68V6.432C120.817 6 123.049 5.568 125.029 5.568C129.457 5.568 132.661 7.692 131.833 12.408ZM125.857 19.968L126.469 16.512H123.229C121.033 16.512 120.457 17.484 120.457 18.78C120.457 20.256 121.177 20.472 122.833 20.472C123.985 20.472 125.029 20.292 125.857 19.968Z" fill="#404040"/>
</svg>
