<svg xmlns="http://www.w3.org/2000/svg" version="1.1" xmlns:xlink="http://www.w3.org/1999/xlink" width="" height="" x="0" y="0" viewBox="0 0 32 32" style="enable-background:new 0 0 512 512" xml:space="preserve" class=""><g><path d="M27 10a2.996 2.996 0 0 0-2.816 2H19a1 1 0 1 0 0 2h5.184A2.996 2.996 0 0 0 27 16c1.654 0 3-1.346 3-3s-1.346-3-3-3zm0 4a1.001 1.001 0 0 1 0-2 1.001 1.001 0 0 1 0 2zM24.112 18.15 22.8 16.4a1 1 0 0 0-.8-.4h-3a1 1 0 1 0 0 2h2.5l1.005 1.339A2.98 2.98 0 0 0 22 21c0 1.654 1.346 3 3 3s3-1.346 3-3c0-1.939-1.868-3.483-3.888-2.85zM25 22a1.001 1.001 0 0 1 0-2 1.001 1.001 0 0 1 0 2zM21.056 24.006l-1.107-3.322a.999.999 0 1 0-1.897.633l1.11 3.331A2.98 2.98 0 0 0 18 27c0 1.654 1.346 3 3 3s3-1.346 3-3a3 3 0 0 0-2.944-2.994zM21 28a1.001 1.001 0 0 1 0-2 1.001 1.001 0 0 1 0 2zM19 8a1 1 0 1 0 0 2h1c.379 0 .725-.214.895-.553l.742-1.484C23.525 8.195 25 6.715 25 5c0-1.654-1.346-3-3-3s-3 1.346-3 3c0 .807.324 1.537.844 2.077L19.382 8zm3-4a1.001 1.001 0 1 1-1 1c0-.552.449-1 1-1zM16.777 4.043A5.479 5.479 0 0 0 12.5 2C9.576 2 7.185 4.296 7.016 7.177 4.146 7.851 2 10.427 2 13.5c0 2.097 1.034 4.045 2.697 5.254A3.997 3.997 0 0 0 4 21c0 2.206 1.794 4 4 4 0 2.757 2.243 5 5 5a5.002 5.002 0 0 0 3.75-1.693c.218-.247.25-.501.25-.807V4.8c0-.299-.029-.517-.223-.757zM15 12.728A1.993 1.993 0 0 1 14 13c-.403 0-.903-.264-1.246-.657a1.001 1.001 0 0 0-1.508 1.314C11.979 14.498 13.009 15 14 15c.342 0 .675-.059 1-.143v12.356A2.988 2.988 0 0 1 13 28c-1.654 0-3-1.346-3-3 0-.204.028-.404.068-.601.333-.203.649-.436.914-.732a1 1 0 0 0-1.491-1.334 2.002 2.002 0 1 1-2.158-3.22.999.999 0 1 0-.667-1.884c-.135.048-.261.112-.388.173A4.518 4.518 0 0 1 4 13.5a4.505 4.505 0 0 1 5.727-4.331 1 1 0 0 0 .541-1.925 6.48 6.48 0 0 0-1.221-.207C9.276 5.328 10.729 4 12.5 4c.956 0 1.842.4 2.5 1.081z" fill="#4367bc" opacity="1" data-original="#000000"></path></g></svg>
